<svg xmlns="http://www.w3.org/2000/svg" fill="none" viewBox="0 0 24 24">
    <path fill="currentColor"
        d="M21 20.25h-.25V19c0-1.08-.671-1.75-1.75-1.75h-.25v-5.5H19c1.079 0 1.75-.67 1.75-1.75V7.44a1.74 1.74 0 0 0-.968-1.564l-6.776-3.388a2.266 2.266 0 0 0-2.012 0L4.218 5.876A1.74 1.74 0 0 0 3.25 7.44V10c0 1.08.671 1.75 1.75 1.75h.25v5.5H5c-1.079 0-1.75.67-1.75 1.75v1.25H3a.75.75 0 0 0 0 1.5h18a.75.75 0 0 0 0-1.5Zm-3.75-3h-2.5v-5.5h2.5v5.5Zm-6.5 0v-5.5h2.5v5.5h-2.5Zm-5.966-7.027c-.005-.008-.034-.067-.034-.223V7.44a.25.25 0 0 1 .138-.223l6.776-3.388a.75.75 0 0 1 .672 0l6.776 3.388a.248.248 0 0 1 .138.224V10c0 .156-.029.214-.027.217a.513.513 0 0 1-.223.033H5c-.151 0-.21-.027-.216-.027ZM6.75 11.75h2.5v5.5h-2.5v-5.5Zm-2 7.25c0-.156.029-.214.027-.217A.513.513 0 0 1 5 18.75h14c.182 0 .218.027.217.027.004.009.033.067.033.223v1.25H4.75V19Zm6-12a1.25 1.25 0 1 1 2.5 0 1.25 1.25 0 0 1-2.5 0Z" />
</svg>