<svg xmlns="http://www.w3.org/2000/svg" fill="none" viewBox="0 0 24 24">
    <path fill="currentColor"
        d="M21.75 20a.75.75 0 0 1-.75.75H4.5c-1.409 0-2.25-.841-2.25-2.25V4a.75.75 0 0 1 1.5 0v14.5c0 .589.161.75.75.75H21a.75.75 0 0 1 .75.75ZM8.02 14.5a1.5 1.5 0 0 0 1.5-1.5c0-.139-.025-.271-.06-.399l2.161-2.161c.128.035.26.06.399.06.128 0 .25-.021.368-.051l2.179 2.178a1.48 1.48 0 0 0-.052.373 1.504 1.504 0 0 0 3.005 0c0-.139-.025-.271-.06-.399l2.161-2.161c.128.035.26.06.399.06a1.5 1.5 0 1 0 0-3h-.01c-.828 0-1.495.671-1.495 1.5 0 .129.022.252.052.372l-2.179 2.179a1.499 1.499 0 0 0-.368-.051h-.01c-.136 0-.266.024-.391.058L13.46 9.399c.035-.128.06-.26.06-.399a1.5 1.5 0 0 0-1.5-1.5h-.01c-.828 0-1.495.671-1.495 1.5 0 .129.022.252.052.372L8.388 11.55a1.499 1.499 0 0 0-.368-.051h-.01c-.828 0-1.495.671-1.495 1.5s.676 1.5 1.505 1.5Z" />
</svg>