<svg xmlns="http://www.w3.org/2000/svg" fill="none" viewBox="0 0 24 24">
    <path fill="currentColor"
        d="M3.001 11.8a.75.75 0 0 1-.746-.831A9.632 9.632 0 0 1 7.61 3.327a.75.75 0 0 1 1.081.674v3.05a.75.75 0 0 1-1.5 0v-1.74a8.136 8.136 0 0 0-3.445 5.822.751.751 0 0 1-.745.667Zm18.08.405a.752.752 0 0 0-.826.664 8.141 8.141 0 0 1-3.445 5.823v-1.741a.75.75 0 0 0-1.5 0v3.05a.75.75 0 0 0 1.08.673 9.63 9.63 0 0 0 5.355-7.642.749.749 0 0 0-.664-.827ZM11.25 7A4.756 4.756 0 0 1 16 2.25 4.756 4.756 0 0 1 20.75 7 4.756 4.756 0 0 1 16 11.75 4.756 4.756 0 0 1 11.25 7Zm1.5 0A3.254 3.254 0 0 0 16 10.25 3.254 3.254 0 0 0 19.25 7 3.254 3.254 0 0 0 16 3.75 3.254 3.254 0 0 0 12.75 7Zm1 8.5v4c0 1.409-.841 2.25-2.25 2.25h-6c-1.409 0-2.25-.841-2.25-2.25v-4c0-1.409.841-2.25 2.25-2.25h6c1.409 0 2.25.841 2.25 2.25Zm-9 0v.25h7.5v-.25c0-.589-.161-.75-.75-.75h-6c-.589 0-.75.161-.75.75Zm7.5 4v-2.25h-7.5v2.25c0 .589.161.75.75.75h6c.589 0 .75-.161.75-.75ZM7.5 18.25H6a.75.75 0 0 0 0 1.5h1.5a.75.75 0 0 0 0-1.5Z" />
</svg>