<svg xmlns="http://www.w3.org/2000/svg" fill="none" viewBox="0 0 24 24">
    <path fill="currentColor"
        d="M21.229 13.868C19.913 16.064 16.96 19.75 12 19.75a9.343 9.343 0 0 1-2.826-.435.749.749 0 1 1 .453-1.43A7.856 7.856 0 0 0 12 18.25c4.222 0 6.79-3.23 7.944-5.156a2.111 2.111 0 0 0 .002-2.187c-.346-.583-.769-1.18-1.226-1.728a.751.751 0 0 1 1.155-.959c.506.609.976 1.272 1.358 1.917a3.599 3.599 0 0 1-.004 3.73Zm-11.166 1.13L3.53 21.53a.748.748 0 0 1-1.06 0 .75.75 0 0 1 0-1.061l3.175-3.175a14.48 14.48 0 0 1-2.876-3.43 3.602 3.602 0 0 1 .002-3.732C4.087 7.937 7.04 4.25 12 4.25c1.835 0 3.565.519 5.155 1.534l3.314-3.314a.75.75 0 1 1 1.061 1.06L10.065 14.998h-.002Zm-.454-1.667 3.722-3.722A2.695 2.695 0 0 0 12 9.25 2.752 2.752 0 0 0 9.251 12c0 .477.132.928.358 1.33Zm-2.902 2.9 1.812-1.811a4.184 4.184 0 0 1-.768-2.421A4.255 4.255 0 0 1 12 7.749c.884 0 1.718.273 2.42.768l1.632-1.631c-1.265-.741-2.62-1.138-4.052-1.138-4.222 0-6.79 3.23-7.944 5.156a2.111 2.111 0 0 0-.002 2.187c.537.897 1.429 2.11 2.653 3.14Zm8.001-3.796a2.746 2.746 0 0 1-2.272 2.274.75.75 0 0 0 .228 1.482 4.203 4.203 0 0 0 3.526-3.527.75.75 0 0 0-.627-.856.756.756 0 0 0-.855.627Z" />
</svg>