<svg xmlns="http://www.w3.org/2000/svg" fill="none" viewBox="0 0 24 24">
    <path fill="currentColor"
        d="M21.235 10.138C19.922 7.938 16.975 4.25 12 4.25s-7.922 3.689-9.235 5.888a3.622 3.622 0 0 0 0 3.724c1.313 2.2 4.26 5.888 9.235 5.888s7.922-3.689 9.235-5.888a3.622 3.622 0 0 0 0-3.724Zm-1.287 2.954c-1.15 1.926-3.713 5.158-7.948 5.158s-6.798-3.231-7.948-5.158a2.13 2.13 0 0 1 0-2.185C5.202 8.981 7.765 5.749 12 5.749s6.798 3.231 7.948 5.158a2.126 2.126 0 0 1 0 2.185ZM12 7.75A4.255 4.255 0 0 0 7.75 12 4.255 4.255 0 0 0 12 16.25 4.255 4.255 0 0 0 16.25 12 4.255 4.255 0 0 0 12 7.75Zm0 7A2.752 2.752 0 0 1 9.25 12 2.752 2.752 0 0 1 12 9.25 2.752 2.752 0 0 1 14.75 12 2.752 2.752 0 0 1 12 14.75Z" />
</svg>