<svg xmlns="http://www.w3.org/2000/svg" fill="none" viewBox="0 0 24 24">
    <path fill="currentColor"
        d="M13.75 18a.75.75 0 0 1-.75.75H5c-2.418 0-3.75-1.332-3.75-3.75V7c0-2.418 1.332-3.75 3.75-3.75h12c2.418 0 3.75 1.332 3.75 3.75v4a.75.75 0 0 1-1.5 0V7c0-1.577-.673-2.25-2.25-2.25H5c-1.577 0-2.25.673-2.25 2.25v8c0 1.577.673 2.25 2.25 2.25h8a.75.75 0 0 1 .75.75ZM4 11a1 1 0 1 0 2 0 1 1 0 0 0-2 0Zm10.75 0A3.754 3.754 0 0 1 11 14.75 3.754 3.754 0 0 1 7.25 11 3.754 3.754 0 0 1 11 7.25 3.754 3.754 0 0 1 14.75 11Zm-1.5 0A2.252 2.252 0 0 0 11 8.75 2.252 2.252 0 0 0 8.75 11 2.252 2.252 0 0 0 11 13.25 2.252 2.252 0 0 0 13.25 11ZM22 19.25h-4.5a.75.75 0 0 1-.75-.75V18a.75.75 0 0 0-1.5 0v.5a2.252 2.252 0 0 0 2.25 2.25h2.792a.75.75 0 0 0 1.237.78l1-1A.75.75 0 0 0 22 19.25Zm-1.5-4.5h-2.792a.75.75 0 0 0-1.238-.78l-1 1a.75.75 0 0 0 .53 1.28h4.5a.75.75 0 0 1 .75.75v.5a.75.75 0 0 0 1.5 0V17a2.252 2.252 0 0 0-2.25-2.25Z" />
</svg>