<svg xmlns="http://www.w3.org/2000/svg" fill="none" viewBox="0 0 24 24">
    <path fill="currentColor"
        d="M18.733 7.267c-.087-1.942-1.22-3.017-3.233-3.017h-10c-2.096 0-3.25 1.154-3.25 3.25v7c0 2.013 1.075 3.146 3.017 3.233.087 1.942 1.22 3.017 3.233 3.017h10c2.096 0 3.25-1.154 3.25-3.25v-7c0-2.013-1.075-3.146-3.017-3.233ZM3.75 14.5v-7c0-1.259.491-1.75 1.75-1.75h10c1.259 0 1.75.491 1.75 1.75v7c0 1.259-.491 1.75-1.75 1.75h-10c-1.259 0-1.75-.491-1.75-1.75Zm16.5 3c0 1.259-.49 1.75-1.75 1.75h-10c-1.169 0-1.67-.432-1.737-1.5H15.5c2.096 0 3.25-1.154 3.25-3.25V8.763c1.069.067 1.5.567 1.5 1.737v7ZM5.5 12a1 1 0 1 1 0-2 1 1 0 0 1 0 2Zm9-1a1 1 0 1 1 2 0 1 1 0 0 1-2 0Zm-4 3.25A3.254 3.254 0 0 0 13.75 11a3.254 3.254 0 0 0-3.25-3.25A3.254 3.254 0 0 0 7.25 11a3.254 3.254 0 0 0 3.25 3.25Zm0-5c.965 0 1.75.785 1.75 1.75s-.785 1.75-1.75 1.75-1.75-.785-1.75-1.75.785-1.75 1.75-1.75Z" />
</svg>