<svg xmlns="http://www.w3.org/2000/svg" fill="none" viewBox="0 0 24 24">
    <path fill="currentColor"
        d="M21.147 4.265C16.22 3.28 14.514 2.42 12.355 1.33a.818.818 0 0 0-.702.014c-2.19 1.086-3.921 1.945-8.8 2.92A.75.75 0 0 0 2.248 5v5.889c0 8.234 7.924 11.293 9.513 11.823a.74.74 0 0 0 .474 0c1.59-.53 9.513-3.59 9.513-11.823V5a.747.747 0 0 0-.602-.735Zm-.897 6.624c0 6.865-6.418 9.66-8.25 10.317-1.832-.657-8.25-3.453-8.25-10.317V5.613c4.385-.916 6.188-1.747 8.265-2.774 1.953.981 3.812 1.848 8.235 2.774v5.276ZM12.01 9.5h.01a1.5 1.5 0 0 1 1.5 1.5c0 .562-.312 1.046-.77 1.303V15a.75.75 0 0 1-1.5 0v-2.718a1.494 1.494 0 0 1 .76-2.782Z" />
</svg>