<svg xmlns="http://www.w3.org/2000/svg" fill="none" viewBox="0 0 24 24">
    <path fill="currentColor"
        d="M15.553 21.75H8.448c-2.205 0-3.42-1.208-3.42-3.4 0-2.404 1.36-5.211 5.195-5.211h3.555c3.835 0 5.195 2.807 5.195 5.211 0 2.192-1.215 3.4-3.42 3.4Zm-5.33-7.111c-3.429 0-3.695 2.84-3.695 3.711 0 1.35.557 1.9 1.92 1.9h7.105c1.363 0 1.92-.551 1.92-1.9 0-.871-.267-3.711-3.695-3.711h-3.555Zm1.785-2.877a3.76 3.76 0 0 1-3.756-3.756 3.76 3.76 0 0 1 3.756-3.756 3.761 3.761 0 0 1 3.757 3.756 3.761 3.761 0 0 1-3.757 3.756Zm0-6.012a2.259 2.259 0 0 0-2.256 2.256 2.259 2.259 0 0 0 2.256 2.256 2.26 2.26 0 0 0 2.257-2.256 2.26 2.26 0 0 0-2.257-2.256Zm10.742 6.9c0-1.976-1.225-3.97-3.96-3.97h-.97a.75.75 0 0 0 0 1.5h.97c2.221 0 2.46 1.727 2.46 2.47 0 .864-.31 1.17-1.18 1.17h-.36a.75.75 0 0 0 0 1.5h.36c1.703 0 2.68-.973 2.68-2.67Zm-4.651-4.615a2.924 2.924 0 0 0-.589-5.785c-.761 0-1.469.282-1.993.793a.75.75 0 0 0 1.047 1.075 1.34 1.34 0 0 1 .946-.367 1.422 1.422 0 0 1 .292 2.815.75.75 0 1 0 .297 1.469ZM5.03 14.57a.75.75 0 0 0-.75-.75h-.351c-.871 0-1.18-.306-1.18-1.17 0-.743.239-2.47 2.46-2.47h.99a.75.75 0 0 0 0-1.5h-.99c-2.923 0-3.96 2.139-3.96 3.97 0 1.697.977 2.67 2.68 2.67h.351a.75.75 0 0 0 .75-.75Zm1.776-7.122a.75.75 0 0 0-.587-.884A1.425 1.425 0 0 1 5.08 5.169c0-.783.642-1.42 1.43-1.42.36 0 .699.133.956.375a.75.75 0 1 0 1.03-1.09 2.875 2.875 0 0 0-1.985-.785 2.929 2.929 0 0 0-2.93 2.92 2.93 2.93 0 0 0 2.342 2.865.75.75 0 0 0 .883-.586Z" />
</svg>